<?xml version="1.0" encoding="UTF-8"?>
<svg id="Layer_1" data-name="Layer 1" xmlns="http://www.w3.org/2000/svg" version="1.1" viewBox="0 0 331.6 194.53">
  <defs>
    <style>
      .cls-1 {
        fill-rule: evenodd;
      }

      .cls-1, .cls-2 {
        fill: #ef3b39;
        stroke-width: 0px;
      }
    </style>
  </defs>
  <g>
    <path class="cls-2" d="M238.33,81.4c-20.03,0-32.67,10.37-32.67,27.58s12.64,27.54,32.67,27.54,32.67-10.37,32.67-27.54-12.67-27.58-32.67-27.58ZM238.33,121.42c-5.44,0-5.56-7.04-5.56-12.44s.12-12.48,5.56-12.48,5.52,7.04,5.52,12.48-.08,12.44-5.52,12.44Z"/>
    <g>
      <rect class="cls-2" x="63.29" y="82.61" width="25.35" height="52.7" rx="2.1" ry="2.1"/>
      <rect class="cls-2" x="63.29" y="59.49" width="25.35" height="17.61" rx="2.1" ry="2.1"/>
      <rect class="cls-2" x="98.69" y="82.61" width="25.35" height="52.7" rx="2.1" ry="2.1"/>
      <rect class="cls-2" x="98.69" y="59.49" width="25.35" height="17.61" rx="2.1" ry="2.1"/>
      <path class="cls-2" d="M185.93,104.69l14.32-18.7c1.06-1.38.07-3.38-1.67-3.38h-23.27c-.69,0-1.34.34-1.73.91l-13.73,20.02h-.43v-41.95c0-1.16-.94-2.1-2.1-2.1h-21.11c-1.16,0-2.1.94-2.1,2.1v71.61c0,1.16.94,2.1,2.1,2.1h21.11c1.16,0,2.1-.94,2.1-2.1v-23.44h.43l13.56,24.46c.37.67,1.08,1.08,1.84,1.08h24.49c1.65,0,2.66-1.82,1.78-3.22l-15.7-25c-.47-.74-.42-1.7.11-2.4Z"/>
    </g>
    <g>
      <path class="cls-1" d="M231.01,79.19l1.36,1.26c.86.8,2.21.78,3.04-.05.82-.82,1.62-1.66,2.33-2.57.7-.9,1.21-2,1.53-3.05.27-.78.23-1.72.16-2.54-.08-.7-.39-1.52-.74-2.15-.74-1.41-1.96-2.7-3.13-3.8-1.64-1.53-3.33-2.74-4.23-4.93-.27-.63-.47-1.45-.47-2.11-.04-.82.12-1.53.43-2.27.63-1.57,1.62-2.76,2.8-3.81.95-.86.96-2.35.02-3.23l-1.31-1.23c-.82-.77-2.09-.8-2.94-.07-.54.46-1.06.94-1.54,1.49-1.6,1.76-2.86,4.3-2.42,6.77.27,1.57.9,3.05,1.88,4.34,1.06,1.41,2.5,2.43,3.8,3.64,1.49,1.41,3.05,3.29,2.93,5.44-.08.98-.43,1.84-.98,2.66-.75,1.14-1.62,2.1-2.55,3.02-.89.88-.87,2.33.05,3.18Z"/>
      <path class="cls-1" d="M237.17,79.19l1.38,1.26c.87.8,2.21.76,3.04-.06.82-.82,1.63-1.65,2.33-2.55.67-.9,1.21-2,1.53-3.05.23-.78.23-1.72.16-2.54-.08-.7-.39-1.52-.74-2.15-.74-1.41-2-2.7-3.13-3.8-1.68-1.53-3.33-2.74-4.26-4.93-.23-.63-.43-1.45-.47-2.11-.04-.82.12-1.53.43-2.27.66-1.57,1.65-2.76,2.83-3.82.96-.86.96-2.35.03-3.23l-1.31-1.23c-.81-.77-2.07-.8-2.93-.08-.56.47-1.1.96-1.59,1.51-1.6,1.76-2.82,4.3-2.43,6.77.27,1.57.94,3.05,1.88,4.34,1.1,1.41,2.5,2.43,3.8,3.64,1.49,1.41,3.05,3.29,2.93,5.44-.04.98-.43,1.84-.94,2.66-.77,1.14-1.64,2.09-2.58,3.01-.9.88-.88,2.34.05,3.19Z"/>
      <path class="cls-1" d="M243.33,79.19l1.35,1.25c.87.8,2.21.77,3.05-.06.82-.81,1.62-1.65,2.33-2.54.71-.9,1.21-2,1.53-3.05.27-.78.24-1.72.16-2.54-.08-.7-.39-1.52-.74-2.15-.74-1.41-1.96-2.7-3.13-3.8-1.64-1.53-3.33-2.74-4.23-4.93-.27-.63-.47-1.45-.47-2.11-.04-.82.12-1.53.43-2.27.63-1.57,1.62-2.76,2.8-3.81.95-.86.96-2.35.02-3.23l-1.31-1.23c-.82-.77-2.09-.8-2.94-.07-.54.46-1.06.94-1.54,1.49-1.6,1.76-2.86,4.3-2.43,6.77.27,1.57.9,3.05,1.88,4.34,1.06,1.41,2.5,2.43,3.79,3.64,1.49,1.41,3.05,3.29,2.94,5.44-.08.98-.43,1.84-.98,2.66-.75,1.14-1.62,2.1-2.55,3.02-.89.88-.87,2.33.05,3.18Z"/>
    </g>
  </g>
  <g>
    <path class="cls-2" d="M285.35,81.51c-.34,1-.66,2-1,3.03-.34,1-.66,2.03-1,3.03l-1.98-6.06h-1.69v7.82h1.17v-5.87l1.98,5.87h1.05c.34-.95.66-1.93.98-2.93.34-.98.66-1.95,1-2.93v5.87h1.17v-7.82h-1.69Z"/>
    <polygon class="cls-2" points="272.42 82.63 274.91 82.63 274.91 89.33 276.13 89.33 276.13 82.63 278.65 82.63 278.65 81.51 272.42 81.51 272.42 82.63"/>
  </g>
</svg>