<svg width="24" height="24" viewBox="0 0 24 24" fill="none" xmlns="http://www.w3.org/2000/svg">
<g id="icon-action-build" clip-path="url(#clip0_94323_559)">
<path id="Vector" d="M22.6117 18.99L13.5317 9.91C14.4617 7.57 13.9817 4.81 12.0917 2.91C9.79167 0.610002 6.21167 0.400002 3.66167 2.26L7.50167 6.11L6.08167 7.52L2.25167 3.69C0.39167 6.23 0.601671 9.82 2.90167 12.11C4.76167 13.97 7.47167 14.46 9.79167 13.59L18.9017 22.7C19.2917 23.09 19.9217 23.09 20.3117 22.7L22.6117 20.4C23.0117 20.02 23.0117 19.39 22.6117 18.99ZM19.6117 20.59L10.1517 11.13C9.54167 11.58 8.86167 11.85 8.15167 11.95C6.79167 12.15 5.36167 11.74 4.32167 10.7C3.37167 9.76 2.93167 8.5 3.00167 7.26L6.09167 10.35L10.3317 6.11L7.24167 3.02C8.48167 2.95 9.73167 3.39 10.6817 4.33C11.7617 5.41 12.1717 6.9 11.9217 8.29C11.8017 9 11.5017 9.66 11.0417 10.25L20.4917 19.7L19.6117 20.59Z" fill="#757575"/>
</g>
<defs>
<clipPath id="clip0_94323_559">
<rect width="24" height="24" fill="white"/>
</clipPath>
</defs>
</svg>
