<svg width="24" height="24" viewBox="0 0 24 24" fill="none" xmlns="http://www.w3.org/2000/svg">
<g id="icon-action-offline_bolt" clip-path="url(#clip0_94323_1081)">
<path id="Vector" d="M11.9995 2.01999C6.48953 2.01999 2.01953 6.48999 2.01953 12C2.01953 17.51 6.48953 21.98 11.9995 21.98C17.5095 21.98 21.9795 17.51 21.9795 12C21.9795 6.48999 17.5095 2.01999 11.9995 2.01999ZM11.9995 19.98C7.59953 19.98 4.01953 16.4 4.01953 12C4.01953 7.59999 7.59953 4.01999 11.9995 4.01999C16.3995 4.01999 19.9795 7.59999 19.9795 12C19.9795 16.4 16.3995 19.98 11.9995 19.98ZM12.7495 4.99999L8.24953 13.5H11.3895V19L15.7495 10.5H12.7495V4.99999Z" fill="#757575"/>
</g>
<defs>
<clipPath id="clip0_94323_1081">
<rect width="24" height="24" fill="white"/>
</clipPath>
</defs>
</svg>
