<svg width="24" height="24" viewBox="0 0 24 24" fill="none" xmlns="http://www.w3.org/2000/svg">
<g id="icon-action-eco" clip-path="url(#clip0_94323_738)">
<g id="Group">
<path id="Vector" d="M6.05141 8.05C3.32141 10.78 3.32141 15.22 6.05141 17.95C7.42141 19.32 9.21141 20 11.0014 20C12.7914 20 14.5814 19.32 15.9514 17.95C19.4314 14.47 20.0014 4 20.0014 4C20.0014 4 9.53141 4.57 6.05141 8.05ZM14.5414 16.54C13.5914 17.48 12.3414 18 11.0014 18C10.1114 18 9.27141 17.75 8.52141 17.32C9.44141 14.44 11.1414 11.91 13.4014 10C10.7714 11.36 8.56141 13.46 7.03141 16C5.55141 14.04 5.68141 11.25 7.47141 9.46C9.21141 7.72 14.0414 6.65 17.8014 6.2C17.3514 9.96 16.2814 14.79 14.5414 16.54Z" fill="#757575"/>
</g>
</g>
<defs>
<clipPath id="clip0_94323_738">
<rect width="24" height="24" fill="white"/>
</clipPath>
</defs>
</svg>
