<svg width="24" height="24" viewBox="0 0 24 24" fill="none" xmlns="http://www.w3.org/2000/svg">
<g id="icon-action-donut_small" clip-path="url(#clip0_94323_725)">
<path id="Vector" d="M14.82 11H21.95C21.48 6.28 17.72 2.52 13 2.05V9.18C13.85 9.49 14.51 10.15 14.82 11ZM15 4.58C17 5.4 18.6 7 19.42 9H15.99C15.71 8.63 15.37 8.29 15 8.01V4.58ZM2 12C2 17.19 5.95 21.45 11 21.95V14.82C9.84 14.4 9 13.3 9 12C9 10.7 9.84 9.6 11 9.18V2.05C5.95 2.55 2 6.81 2 12ZM9 4.58V8.02C7.77 8.94 7 10.41 7 12C7 13.59 7.77 15.06 9 15.99V19.43C6.04 18.24 4 15.35 4 12C4 8.65 6.04 5.76 9 4.58ZM13 14.82V21.95C17.72 21.48 21.48 17.72 21.95 13H14.82C14.51 13.85 13.85 14.51 13 14.82ZM15 15.99C15.37 15.71 15.71 15.38 15.99 15H19.42C18.6 17 17 18.6 15 19.42V15.99Z" fill="#757575"/>
</g>
<defs>
<clipPath id="clip0_94323_725">
<rect width="24" height="24" fill="white"/>
</clipPath>
</defs>
</svg>
