<svg width="24" height="24" viewBox="0 0 24 24" fill="none" xmlns="http://www.w3.org/2000/svg">
<g id="icon-action-alarm_off" clip-path="url(#clip0_94323_410)">
<path id="Vector" d="M10.0394 6.29C10.6594 6.11 11.3194 6 11.9994 6C15.8594 6 18.9994 9.14 18.9994 13C18.9994 13.68 18.8894 14.34 18.7094 14.96L20.2694 16.52C20.7394 15.44 20.9994 14.25 20.9994 13C20.9994 8.03 16.9694 4 11.9994 4C10.7494 4 9.55938 4.26 8.46938 4.72L10.0394 6.29ZM17.3364 1.81L21.9434 5.655L20.6634 7.19L16.0534 3.347L17.3364 1.81ZM3.01937 2.1L1.60938 3.51L2.97938 4.88L2.05937 5.65L3.33937 7.19L4.39937 6.31L5.19937 7.11C3.82937 8.69 2.99937 10.75 2.99937 13C2.99937 17.97 7.02938 22 11.9994 22C14.2494 22 16.3094 21.17 17.8894 19.8L19.9894 21.9L21.3994 20.49L3.01937 2.1ZM11.9994 20C8.13938 20 4.99937 16.86 4.99937 13C4.99937 11.3 5.60937 9.74 6.61937 8.53L16.4694 18.38C15.2594 19.39 13.6994 20 11.9994 20ZM7.47937 3.73L7.93937 3.35L6.65937 1.81L6.05937 2.31L7.47937 3.73Z" fill="#757575"/>
</g>
<defs>
<clipPath id="clip0_94323_410">
<rect width="24" height="24" fill="white"/>
</clipPath>
</defs>
</svg>
