<svg width="24" height="24" viewBox="0 0 24 24" fill="none" xmlns="http://www.w3.org/2000/svg">
<g id="icon-action-contactless" clip-path="url(#clip0_94323_651)">
<g id="Group">
<g id="Group_2">
<path id="Vector" d="M12 2C6.48 2 2 6.48 2 12C2 17.52 6.48 22 12 22C17.52 22 22 17.52 22 12C22 6.48 17.52 2 12 2ZM12 20C7.58 20 4 16.42 4 12C4 7.58 7.58 4 12 4C16.42 4 20 7.58 20 12C20 16.42 16.42 20 12 20Z" fill="#757575"/>
<path id="Vector_2" d="M7.10156 10.18C7.36156 10.74 7.49156 11.34 7.50156 11.98C7.51156 12.61 7.37156 13.23 7.10156 13.84L8.47156 14.46C8.84156 13.65 9.02156 12.81 9.01156 11.96C9.00156 11.12 8.82156 10.31 8.47156 9.56L7.10156 10.18Z" fill="#757575"/>
<path id="Vector_3" d="M13.3281 7.33C14.1081 8.9 14.5081 10.47 14.5081 11.97C14.5081 13.48 14.1081 15.06 13.3281 16.66L14.6781 17.32C15.5581 15.51 16.0081 13.71 16.0081 11.97C16.0081 10.23 15.5581 8.44 14.6781 6.66L13.3281 7.33Z" fill="#757575"/>
<path id="Vector_4" d="M10.1992 8.72C10.7292 9.79 10.9992 10.93 10.9992 12.12C10.9992 13.29 10.7392 14.35 10.2192 15.27L11.5192 16.01C12.1692 14.86 12.4992 13.56 12.4992 12.12C12.4992 10.7 12.1792 9.33 11.5392 8.05L10.1992 8.72Z" fill="#757575"/>
</g>
</g>
</g>
<defs>
<clipPath id="clip0_94323_651">
<rect width="24" height="24" fill="white"/>
</clipPath>
</defs>
</svg>
