<svg width="24" height="24" viewBox="0 0 24 24" fill="none" xmlns="http://www.w3.org/2000/svg">
<g id="icon-action-alarm_add" clip-path="url(#clip0_94323_406)">
<path id="Vector" d="M17.3386 1.81L21.9456 5.655L20.6656 7.19L16.0556 3.347L17.3386 1.81ZM6.66459 1.81L7.94659 3.346L3.33859 7.19L2.05859 5.654L6.66459 1.81ZM12.0016 4C7.03159 4 3.00159 8.03 3.00159 13C3.00159 17.97 7.03159 22 12.0016 22C16.9716 22 21.0016 17.97 21.0016 13C21.0016 8.03 16.9716 4 12.0016 4ZM12.0016 20C8.14159 20 5.00159 16.86 5.00159 13C5.00159 9.14 8.14159 6 12.0016 6C15.8616 6 19.0016 9.14 19.0016 13C19.0016 16.86 15.8616 20 12.0016 20ZM13.0016 9H11.0016V12H8.00159V14H11.0016V17H13.0016V14H16.0016V12H13.0016V9Z" fill="#757575"/>
</g>
<defs>
<clipPath id="clip0_94323_406">
<rect width="24" height="24" fill="white"/>
</clipPath>
</defs>
</svg>
