<svg width="24" height="24" viewBox="0 0 24 24" fill="none" xmlns="http://www.w3.org/2000/svg">
<g id="icon-action-work_off" clip-path="url(#clip0_94323_1742)">
<path id="Vector" d="M9.99828 4.00003H13.9983V6.00003H10.3983L12.3983 8.00003H19.9983V15.6L21.9983 17.6V8.00003C21.9983 6.89003 21.1083 6.00003 19.9983 6.00003H15.9983V4.00003C15.9983 2.89003 15.1083 2.00003 13.9983 2.00003H9.99828C9.00828 2.00003 8.19828 2.70003 8.03828 3.64003L9.99828 5.60003V4.00003ZM3.39828 1.84003L1.98828 3.25003L4.73828 6.00003H3.99828C2.88828 6.00003 2.00828 6.89003 2.00828 8.00003L1.99828 19C1.99828 20.11 2.88828 21 3.99828 21H19.7383L21.7383 23L23.1483 21.59L3.39828 1.84003ZM3.99828 19V8.00003H6.73828L17.7383 19H3.99828Z" fill="#757575"/>
</g>
<defs>
<clipPath id="clip0_94323_1742">
<rect width="24" height="24" fill="white"/>
</clipPath>
</defs>
</svg>
