<svg width="24" height="24" viewBox="0 0 24 24" fill="none" xmlns="http://www.w3.org/2000/svg">
<g id="icon-action-plagiarism" clip-path="url(#clip0_94323_1197)">
<g id="Group">
<g id="Group_2">
<path id="Vector" d="M14 2H6C4.9 2 4 2.9 4 4V20C4 21.1 4.89 22 5.99 22H18C19.1 22 20 21.1 20 20V8L14 2ZM18 20H6V4H13V9H18V20Z" fill="#757575"/>
<path id="Vector_2" d="M9.03141 11.03C7.66141 12.4 7.66141 14.61 9.03141 15.98C10.1514 17.1 11.8314 17.29 13.1614 16.57L15.0414 18.45L16.4514 17.04L14.5714 15.16C15.2814 13.83 15.1014 12.15 13.9814 11.03C12.6114 9.66 10.3914 9.66 9.03141 11.03ZM12.5614 14.56C11.9714 15.15 11.0214 15.15 10.4414 14.56C9.85141 13.97 9.85141 13.02 10.4414 12.44C11.0314 11.85 11.9814 11.85 12.5614 12.44C13.1514 13.03 13.1514 13.97 12.5614 14.56Z" fill="#757575"/>
</g>
</g>
</g>
<defs>
<clipPath id="clip0_94323_1197">
<rect width="24" height="24" fill="white"/>
</clipPath>
</defs>
</svg>
