<svg width="24" height="24" viewBox="0 0 24 24" fill="none" xmlns="http://www.w3.org/2000/svg">
<g id="icon-action-3d_rotation" clip-path="url(#clip0_94323_341)">
<path id="Vector" d="M7.52859 21.48C4.25859 19.94 1.91859 16.76 1.55859 13H0.0585938C0.568594 19.16 5.71859 24 12.0086 24L12.6686 23.97L8.85859 20.16L7.52859 21.48ZM8.41859 14.96C8.22859 14.96 8.04859 14.93 7.89859 14.88C7.73859 14.82 7.60859 14.75 7.49859 14.64C7.38859 14.54 7.29859 14.42 7.23859 14.27C7.17859 14.13 7.14859 13.97 7.14859 13.8H5.84859C5.84859 14.16 5.91859 14.48 6.05859 14.75C6.19859 15.02 6.38859 15.25 6.61859 15.44C6.85859 15.62 7.12859 15.76 7.43859 15.85C7.73859 15.95 8.05859 16 8.39859 16C8.76859 16 9.11859 15.95 9.42859 15.85C9.74859 15.75 10.0286 15.6 10.2586 15.41C10.4886 15.22 10.6786 14.98 10.8086 14.69C10.9386 14.4 11.0086 14.08 11.0086 13.72C11.0086 13.53 10.9886 13.34 10.9386 13.16C10.8886 12.98 10.8186 12.81 10.7086 12.65C10.6086 12.49 10.4686 12.35 10.3086 12.22C10.1386 12.09 9.93859 11.99 9.69859 11.91C9.89859 11.82 10.0686 11.71 10.2186 11.58C10.3686 11.45 10.4886 11.31 10.5886 11.16C10.6886 11.01 10.7586 10.86 10.8086 10.7C10.8586 10.54 10.8786 10.38 10.8786 10.22C10.8786 9.86 10.8186 9.54 10.6986 9.26C10.5786 8.98 10.4086 8.75 10.1886 8.57C9.98859 8.38 9.71859 8.24 9.41859 8.14C9.10859 8.05 8.76859 8 8.39859 8C8.03859 8 7.70859 8.05 7.39859 8.16C7.09859 8.27 6.82859 8.42 6.60859 8.61C6.39859 8.8 6.22859 9.02 6.09859 9.28C5.97859 9.54 5.91859 9.82 5.91859 10.13H7.21859C7.21859 9.96 7.24859 9.81 7.30859 9.68C7.36859 9.55 7.44859 9.43 7.55859 9.34C7.66859 9.25 7.78859 9.17 7.93859 9.12C8.08859 9.07 8.23859 9.04 8.41859 9.04C8.81859 9.04 9.11859 9.14 9.30859 9.35C9.49859 9.55 9.59859 9.84 9.59859 10.21C9.59859 10.39 9.56859 10.55 9.51859 10.7C9.46859 10.85 9.37859 10.97 9.26859 11.07C9.15859 11.17 9.01859 11.25 8.85859 11.31C8.69859 11.37 8.49859 11.4 8.27859 11.4H7.50859V12.43H8.27859C8.49859 12.43 8.69859 12.45 8.87859 12.5C9.05859 12.55 9.20859 12.63 9.32859 12.73C9.44859 12.84 9.54859 12.97 9.61859 13.13C9.68859 13.29 9.71859 13.48 9.71859 13.7C9.71859 14.11 9.59859 14.42 9.36859 14.63C9.13859 14.86 8.81859 14.96 8.41859 14.96ZM16.9686 9.04C16.6486 8.71 16.2686 8.45 15.8286 8.27C15.3886 8.09 14.8986 8 14.3586 8H11.9986V16H14.2986C14.8486 16 15.3586 15.91 15.8086 15.73C16.2586 15.55 16.6486 15.3 16.9686 14.97C17.2886 14.64 17.5386 14.24 17.7086 13.78C17.8786 13.31 17.9686 12.79 17.9686 12.21V11.81C17.9686 11.23 17.8786 10.71 17.7086 10.24C17.5386 9.77 17.2886 9.37 16.9686 9.04ZM16.5786 12.2C16.5786 12.62 16.5286 12.99 16.4386 13.33C16.3386 13.66 16.1986 13.95 16.0086 14.18C15.8186 14.41 15.5786 14.59 15.2986 14.71C15.0086 14.83 14.6786 14.89 14.3086 14.89H13.3986V9.12H14.3686C15.0886 9.12 15.6386 9.35 16.0086 9.81C16.3886 10.27 16.5786 10.93 16.5786 11.8V12.2ZM12.0086 0L11.3486 0.03L15.1586 3.84L16.4886 2.51C19.7586 4.06 22.0986 7.23 22.4486 10.99H23.9486C23.4486 4.84 18.2986 0 12.0086 0Z" fill="#757575"/>
</g>
<defs>
<clipPath id="clip0_94323_341">
<rect width="24" height="24" fill="white"/>
</clipPath>
</defs>
</svg>
