<svg width="24" height="24" viewBox="0 0 24 24" fill="none" xmlns="http://www.w3.org/2000/svg">
<g id="icon-action-loyalty" clip-path="url(#clip0_94323_1031)">
<path id="Vector" d="M21.41 11.58L12.41 2.58C12.05 2.22 11.55 2 11 2H4C2.9 2 2 2.9 2 4V11C2 11.55 2.22 12.05 2.59 12.42L11.59 21.42C11.95 21.78 12.45 22 13 22C13.55 22 14.05 21.78 14.41 21.41L21.41 14.41C21.78 14.05 22 13.55 22 13C22 12.45 21.77 11.94 21.41 11.58ZM13 20.01L4 11V4H11V3.99L20 12.99L13 20.01Z" fill="#757575"/>
<path id="Vector_2" d="M6.5 8C7.32843 8 8 7.32843 8 6.5C8 5.67157 7.32843 5 6.5 5C5.67157 5 5 5.67157 5 6.5C5 7.32843 5.67157 8 6.5 8Z" fill="#757575"/>
<path id="Vector_3" d="M8.89844 12.55C8.89844 13.12 9.12844 13.62 9.49844 14L12.9984 17.5L16.4984 14C16.8684 13.63 17.0984 13.11 17.0984 12.55C17.0984 11.42 16.1784 10.5 15.0484 10.5C14.4784 10.5 13.9684 10.73 13.5984 11.1L12.9984 11.7L12.3984 11.11C12.0284 10.73 11.5084 10.5 10.9484 10.5C9.81844 10.5 8.89844 11.42 8.89844 12.55Z" fill="#757575"/>
</g>
<defs>
<clipPath id="clip0_94323_1031">
<rect width="24" height="24" fill="white"/>
</clipPath>
</defs>
</svg>
