<svg width="24" height="24" viewBox="0 0 24 24" fill="none" xmlns="http://www.w3.org/2000/svg">
<g id="icon-action-pan_tool" clip-path="url(#clip0_94323_1126)">
<path id="Vector" d="M18.0017 24H11.4517C10.3717 24 9.31172 23.55 8.56172 22.77L1.26172 15.16L3.33172 13.33C3.95172 12.78 4.86172 12.67 5.59172 13.06L8.00172 14.34V4.79001C8.00172 3.41001 9.12172 2.29001 10.5017 2.29001C10.6717 2.29001 10.8417 2.31001 11.0117 2.34001C11.1017 1.04001 12.1817 0.0100098 13.5017 0.0100098C14.3617 0.0100098 15.1117 0.44001 15.5617 1.10001C15.8517 0.98001 16.1717 0.92001 16.5017 0.92001C17.8817 0.92001 19.0017 2.04001 19.0017 3.42001V3.70001C19.1617 3.67001 19.3317 3.65001 19.5017 3.65001C20.8817 3.65001 22.0017 4.77001 22.0017 6.15001V20C22.0017 22.21 20.2117 24 18.0017 24ZM4.14172 15.28L10.0017 21.38C10.3817 21.77 10.9017 22 11.4417 22H18.0017C19.1017 22 20.0017 21.1 20.0017 20V6.15001C20.0017 5.87001 19.7817 5.65001 19.5017 5.65001C19.2217 5.65001 19.0017 5.87001 19.0017 6.15001V12H17.0017V3.42001C17.0017 3.14001 16.7817 2.92001 16.5017 2.92001C16.2217 2.92001 16.0017 3.14001 16.0017 3.42001V12H14.0017V2.51001C14.0017 2.23001 13.7817 2.01001 13.5017 2.01001C13.2217 2.01001 13.0017 2.23001 13.0017 2.51001V12H11.0017V4.79001C11.0017 4.51001 10.7817 4.29001 10.5017 4.29001C10.2217 4.29001 10.0017 4.52001 10.0017 4.79001V17.66L4.65172 14.83L4.14172 15.28Z" fill="#757575"/>
</g>
<defs>
<clipPath id="clip0_94323_1126">
<rect width="24" height="24" fill="white"/>
</clipPath>
</defs>
</svg>
