<svg width="24" height="24" viewBox="0 0 24 24" fill="none" xmlns="http://www.w3.org/2000/svg">
<g id="icon-action-build_circle" clip-path="url(#clip0_94323_563)">
<g id="Group">
<g id="Group_2">
<path id="Vector" fill-rule="evenodd" clip-rule="evenodd" d="M12 2C6.48 2 2 6.48 2 12C2 17.52 6.48 22 12 22C17.52 22 22 17.52 22 12C22 6.48 17.52 2 12 2ZM12 20C7.59 20 4 16.41 4 12C4 7.59 7.59 4 12 4C16.41 4 20 7.59 20 12C20 16.41 16.41 20 12 20Z" fill="#757575"/>
<path id="Vector_2" fill-rule="evenodd" clip-rule="evenodd" d="M13.4889 11.38C13.9189 10.16 13.6589 8.74 12.6789 7.76C11.5689 6.65 9.88886 6.46 8.57886 7.17L10.9289 9.52L9.51886 10.93L7.16886 8.58C6.45886 9.9 6.64886 11.57 7.75886 12.68C8.73886 13.66 10.1589 13.92 11.3789 13.49L14.7889 16.9C14.9889 17.1 15.2989 17.1 15.4989 16.9L16.8989 15.5C17.0989 15.3 17.0989 14.99 16.8989 14.79L13.4889 11.38Z" fill="#757575"/>
</g>
</g>
</g>
<defs>
<clipPath id="clip0_94323_563">
<rect width="24" height="24" fill="white"/>
</clipPath>
</defs>
</svg>
