<svg width="24" height="24" viewBox="0 0 24 24" fill="none" xmlns="http://www.w3.org/2000/svg">
<g id="icon-action-search_off" clip-path="url(#clip0_94323_1324)">
<g id="Group">
<g id="Group_2">
<path id="Vector" d="M15.5013 14H14.7113L14.4313 13.73C15.4113 12.59 16.0013 11.11 16.0013 9.5C16.0013 5.91 13.0913 3 9.50125 3C6.08125 3 3.28125 5.64 3.03125 9H5.05125C5.30125 6.75 7.18125 5 9.50125 5C11.9913 5 14.0013 7.01 14.0013 9.5C14.0013 11.99 11.9913 14 9.50125 14C9.33125 14 9.17125 13.97 9.00125 13.95V15.97C9.17125 15.99 9.33125 16 9.50125 16C11.1112 16 12.5912 15.41 13.7312 14.43L14.0013 14.71V15.5L19.0013 20.49L20.4912 19L15.5013 14Z" fill="#757575"/>
<path id="Vector_2" d="M6.47031 10.82L4.00031 13.29L1.53031 10.82L0.820312 11.53L3.29031 14L0.820312 16.47L1.53031 17.18L4.00031 14.71L6.47031 17.18L7.18031 16.47L4.71031 14L7.18031 11.53L6.47031 10.82Z" fill="#757575"/>
</g>
</g>
</g>
<defs>
<clipPath id="clip0_94323_1324">
<rect width="24" height="24" fill="white"/>
</clipPath>
</defs>
</svg>
