<svg width="24" height="24" viewBox="0 0 24 24" fill="none" xmlns="http://www.w3.org/2000/svg">
<g id="icon-action-subtitles_off" clip-path="url(#clip0_94323_1465)">
<g id="Group">
<g id="Group_2">
<path id="Vector" d="M19.9981 4H6.82812L8.82812 6H19.9981V17.17L21.7581 18.93C21.9081 18.65 21.9981 18.34 21.9981 18V6C21.9981 4.9 21.0981 4 19.9981 4Z" fill="#757575"/>
<path id="Vector_2" d="M17.9981 10H12.8281L14.8281 12H17.9981V10Z" fill="#757575"/>
<path id="Vector_3" d="M1.03906 3.87001L2.23906 5.07001C2.08906 5.35001 1.99906 5.66001 1.99906 6.00001V18C1.99906 19.1 2.89906 20 3.99906 20H17.1691L20.1291 22.96L21.5391 21.55L2.44906 2.45001L1.03906 3.87001ZM3.99906 6.83001L7.16906 10H5.99906V12H7.99906V10.83L11.1691 14H5.99906V16H13.1691L15.1691 18H3.99906V6.83001Z" fill="#757575"/>
</g>
</g>
</g>
<defs>
<clipPath id="clip0_94323_1465">
<rect width="24" height="24" fill="white"/>
</clipPath>
</defs>
</svg>
