<svg width="24" height="24" viewBox="0 0 24 24" fill="none" xmlns="http://www.w3.org/2000/svg">
<g id="icon-action-history_toggle_off" clip-path="url(#clip0_94323_906)">
<g id="Group">
<path id="Vector" d="M15.1008 19.37L16.1008 21.11C15.1408 21.55 14.0908 21.84 13.0008 21.95V19.93C13.7408 19.84 14.4408 19.65 15.1008 19.37ZM4.07078 13H2.05078C2.16078 14.1 2.45078 15.14 2.89078 16.1L4.63078 15.1C4.35078 14.44 4.16078 13.74 4.07078 13ZM15.1008 4.62999L16.1008 2.88999C15.1408 2.44999 14.1008 2.15999 13.0008 2.04999V4.06999C13.7408 4.15999 14.4408 4.34999 15.1008 4.62999ZM19.9308 11H21.9508C21.8408 9.89999 21.5508 8.85999 21.1108 7.89999L19.3708 8.89999C19.6508 9.55999 19.8408 10.26 19.9308 11ZM8.90078 19.37L7.90078 21.11C8.86078 21.55 9.91078 21.84 11.0008 21.95V19.93C10.2608 19.84 9.56078 19.65 8.90078 19.37ZM11.0008 4.06999V2.04999C9.90078 2.15999 8.86078 2.44999 7.90078 2.88999L8.90078 4.62999C9.56078 4.34999 10.2608 4.15999 11.0008 4.06999ZM18.3608 7.16999L20.1008 6.15999C19.4708 5.28999 18.7008 4.51999 17.8308 3.88999L16.8208 5.62999C17.4108 6.07999 17.9208 6.58999 18.3608 7.16999ZM4.63078 8.89999L2.89078 7.89999C2.45078 8.85999 2.16078 9.89999 2.05078 11H4.07078C4.16078 10.26 4.35078 9.55999 4.63078 8.89999ZM19.9308 13C19.8408 13.74 19.6508 14.44 19.3708 15.1L21.1108 16.1C21.5508 15.14 21.8408 14.09 21.9508 13H19.9308ZM16.8308 18.36L17.8408 20.1C18.7108 19.47 19.4808 18.7 20.1108 17.83L18.3708 16.82C17.9208 17.41 17.4108 17.92 16.8308 18.36ZM7.17078 5.63999L6.17078 3.88999C5.29078 4.52999 4.53078 5.28999 3.90078 6.16999L5.64078 7.17999C6.08078 6.58999 6.59078 6.07999 7.17078 5.63999ZM5.64078 16.83L3.90078 17.83C4.53078 18.7 5.30078 19.47 6.17078 20.1L7.18078 18.36C6.59078 17.92 6.08078 17.41 5.64078 16.83ZM13.0008 6.99999H11.0008V12.41L15.2908 16.7L16.7008 15.29L13.0008 11.59V6.99999Z" fill="#757575"/>
</g>
</g>
<defs>
<clipPath id="clip0_94323_906">
<rect width="24" height="24" fill="white"/>
</clipPath>
</defs>
</svg>
