<svg width="24" height="24" viewBox="0 0 24 24" fill="none" xmlns="http://www.w3.org/2000/svg">
<g id="icon-action-supervised_user_circle" clip-path="url(#clip0_94323_1474)">
<path id="Vector" d="M12.4983 10C12.4983 8.35001 11.1483 7.00001 9.49828 7.00001C7.84828 7.00001 6.49828 8.35001 6.49828 10C6.49828 11.65 7.84828 13 9.49828 13C11.1483 13 12.4983 11.65 12.4983 10ZM9.49828 11C8.94828 11 8.49828 10.55 8.49828 10C8.49828 9.45001 8.94828 9.00001 9.49828 9.00001C10.0483 9.00001 10.4983 9.45001 10.4983 10C10.4983 10.55 10.0483 11 9.49828 11ZM15.9983 13C17.1083 13 17.9983 12.11 17.9983 11C17.9983 9.89001 17.1083 9.00001 15.9983 9.00001C14.8883 9.00001 13.9883 9.89001 13.9983 11C13.9983 12.11 14.8883 13 15.9983 13ZM11.9883 2.01001C6.46828 2.01001 1.98828 6.49001 1.98828 12.01C1.98828 17.53 6.46828 22.01 11.9883 22.01C17.5083 22.01 21.9883 17.53 21.9883 12.01C21.9883 6.49001 17.5083 2.01001 11.9883 2.01001ZM5.83828 17.12C6.51828 16.58 8.10828 16.01 9.49828 16.01C9.56828 16.01 9.64828 16.02 9.72828 16.02C9.96828 15.38 10.3983 14.73 11.0283 14.16C10.4683 14.06 9.93828 14 9.49828 14C8.19828 14 6.10828 14.45 4.76828 15.43C4.26828 14.39 3.98828 13.23 3.98828 12C3.98828 7.59001 7.57828 4.00001 11.9883 4.00001C16.3983 4.00001 19.9883 7.59001 19.9883 12C19.9883 13.2 19.7183 14.34 19.2383 15.37C18.2383 14.78 16.8783 14.5 15.9983 14.5C14.4783 14.5 11.4983 15.31 11.4983 17.2V19.98C9.22828 19.85 7.20828 18.77 5.83828 17.12Z" fill="#757575"/>
</g>
<defs>
<clipPath id="clip0_94323_1474">
<rect width="24" height="24" fill="white"/>
</clipPath>
</defs>
</svg>
