<svg width="24" height="24" viewBox="0 0 24 24" fill="none" xmlns="http://www.w3.org/2000/svg">
<g id="icon-action-admin_panel_settings" clip-path="url(#clip0_94323_393)">
<g id="Group">
<g id="Group_2">
<path id="Vector" d="M16.9989 16.62C17.6175 16.62 18.1189 16.1186 18.1189 15.5C18.1189 14.8814 17.6175 14.38 16.9989 14.38C16.3803 14.38 15.8789 14.8814 15.8789 15.5C15.8789 16.1186 16.3803 16.62 16.9989 16.62Z" fill="#757575"/>
<path id="Vector_2" fill-rule="evenodd" clip-rule="evenodd" d="M17.0017 17.5C16.2717 17.5 14.8117 17.86 14.7617 18.58C15.2617 19.29 16.0817 19.75 17.0017 19.75C17.9217 19.75 18.7417 19.29 19.2417 18.58C19.1917 17.86 17.7317 17.5 17.0017 17.5Z" fill="#757575"/>
<path id="Vector_3" fill-rule="evenodd" clip-rule="evenodd" d="M18 11.09V6.27L10.5 3L3 6.27V11.18C3 15.72 6.2 19.97 10.5 21C11.05 20.87 11.58 20.68 12.1 20.45C13.18 21.99 14.97 23 17 23C20.31 23 23 20.31 23 17C23 14.03 20.84 11.57 18 11.09ZM11 17C11 17.56 11.08 18.11 11.23 18.62C10.99 18.73 10.75 18.84 10.5 18.92C7.33 17.92 5 14.68 5 11.18V7.58L10.5 5.18L16 7.58V11.09C13.16 11.57 11 14.03 11 17ZM17 21C14.79 21 13 19.21 13 17C13 14.79 14.79 13 17 13C19.21 13 21 14.79 21 17C21 19.21 19.21 21 17 21Z" fill="#757575"/>
</g>
</g>
</g>
<defs>
<clipPath id="clip0_94323_393">
<rect width="24" height="24" fill="white"/>
</clipPath>
</defs>
</svg>
